# xmcd
#
# Track frame offsets:
# 150
# 19790
# 38585
# 56716
# 75466
# 92702
# 110343
# 125806
# 138822
# 150427
# 166589
# 184595
# 202354
# 223138
# 240354
# 253215
# 267890
# 288076
# 302083
# 321789
#
# Disc length: 4517 seconds
#
# Revision: 0
# Processed by: cddbd v1.4PL0 Copyright (c) Steve Scherf et al.
# Submitted via: Audion 3.0.2 (http://www.panic.com/audion/)
#
DISCID=1011a314
DTITLE=La Oreja de Van Gogh - Lo ultimo y lo mejor
DYEAR=1900
DGENRE=
TTITLE0=Sin miedo a nada
TTITLE1=Porque te vas
TTITLE2=Mariposa
TTITLE3=La Playa
TTITLE4=Parts
TTITLE5=Solidad
TTITLE6=Dicen que Dicen
TTITLE7=Cuidate
TTITLE8=Pop
TTITLE9=La chica del gorro azul
TTITLE10=I don't know
TTITLE11=Tantas cosas que contar
TTITLE12=Still don't know
TTITLE13=Desde somethin
TTITLE14=28
TTITLE15=something el oido
TTITLE16=Dos cristals
TTITLE17=Que puedo decir
TTITLE18=Who knows
TTITLE19=hmmm
EXTD=
EXTT0=
EXTT1=
EXTT2=
EXTT3=
EXTT4=
EXTT5=
EXTT6=
EXTT7=
EXTT8=
EXTT9=
EXTT10=
EXTT11=
EXTT12=
EXTT13=
EXTT14=
EXTT15=
EXTT16=
EXTT17=
EXTT18=
EXTT19=
PLAYORDER=
